# Tiled2Unity generated file. Do not modify by hand.
# Wavefront file for 'OpenLevel1_mesh_0034.obj'

# Vertices (Count = 48)
v -75 -4 0
v -77 -4 0
v -77 -3.3 0
v -75 -3.3 0
v -76 -4 0
v -78 -4 0
v -78 -3.3 0
v -76 -3.3 0
v -55 -19 0
v -57 -19 0
v -57 -18.3 0
v -55 -18.3 0
v -56 -19 0
v -58 -19 0
v -58 -18.3 0
v -56 -18.3 0
v -93 -23 0
v -95 -23 0
v -95 -22.3 0
v -93 -22.3 0
v -11 -25 0
v -13 -25 0
v -13 -24.3 0
v -11 -24.3 0
v -35 -38 0
v -37 -38 0
v -37 -37.3 0
v -35 -37.3 0
v -36 -38 0
v -38 -38 0
v -38 -37.3 0
v -36 -37.3 0
v -37 -38 0
v -39 -38 0
v -39 -37.3 0
v -37 -37.3 0
v -83 -38 0
v -85 -38 0
v -85 -37.3 0
v -83 -37.3 0
v -23 -42 0
v -25 -42 0
v -25 -41.3 0
v -23 -41.3 0
v -24 -42 0
v -26 -42 0
v -26 -41.3 0
v -24 -41.3 0

# Texture cooridinates (Count = 4)
vt 0.2 0
vt 0.4 0
vt 0.4 1
vt 0.2 1

# Normal
vn 0 0 -1

# Mesh description
g OpenLevel1_mesh_0034

# Faces
f 1/1/1 2/2/1 3/3/1 4/4/1
f 5/1/1 6/2/1 7/3/1 8/4/1
f 9/1/1 10/2/1 11/3/1 12/4/1
f 13/1/1 14/2/1 15/3/1 16/4/1
f 17/1/1 18/2/1 19/3/1 20/4/1
f 21/1/1 22/2/1 23/3/1 24/4/1
f 25/1/1 26/2/1 27/3/1 28/4/1
f 29/1/1 30/2/1 31/3/1 32/4/1
f 33/1/1 34/2/1 35/3/1 36/4/1
f 37/1/1 38/2/1 39/3/1 40/4/1
f 41/1/1 42/2/1 43/3/1 44/4/1
f 45/1/1 46/2/1 47/3/1 48/4/1

