# Tiled2Unity generated file. Do not modify by hand.
# Wavefront file for 'Puzzle1_mesh_0040.obj'

# Vertices (Count = 28)
v -18 -9 0
v -20 -9 0
v -20 -8.3 0
v -18 -8.3 0
v -3 -11 0
v -5 -11 0
v -5 -10.3 0
v -3 -10.3 0
v -4 -11 0
v -6 -11 0
v -6 -10.3 0
v -4 -10.3 0
v -5 -11 0
v -7 -11 0
v -7 -10.3 0
v -5 -10.3 0
v -17 -21 0
v -19 -21 0
v -19 -20.3 0
v -17 -20.3 0
v -18 -21 0
v -20 -21 0
v -20 -20.3 0
v -18 -20.3 0
v -11 -27 0
v -13 -27 0
v -13 -26.3 0
v -11 -26.3 0

# Texture cooridinates (Count = 4)
vt 0 0
vt 1 0
vt 1 1
vt 0 1

# Normal
vn 0 0 -1

# Mesh description
g Puzzle1_mesh_0040

# Faces
f 1/1/1 2/2/1 3/3/1 4/4/1
f 5/1/1 6/2/1 7/3/1 8/4/1
f 9/1/1 10/2/1 11/3/1 12/4/1
f 13/1/1 14/2/1 15/3/1 16/4/1
f 17/1/1 18/2/1 19/3/1 20/4/1
f 21/1/1 22/2/1 23/3/1 24/4/1
f 25/1/1 26/2/1 27/3/1 28/4/1

