# Tiled2Unity generated file. Do not modify by hand.
# Wavefront file for 'Puzzle1_mesh_0014.obj'

# Vertices (Count = 32)
v -17 -14 0
v -21.38 -14 0
v -21.38 -11.46 0
v -17 -11.46 0
v -17 -21 0
v -21.38 -21 0
v -21.38 -18.46 0
v -17 -18.46 0
v -39 -23 0
v -43.38 -23 0
v -43.38 -20.46 0
v -39 -20.46 0
v -8 -27 0
v -12.38 -27 0
v -12.38 -24.46 0
v -8 -24.46 0
v -14 -27 0
v -18.38 -27 0
v -18.38 -24.46 0
v -14 -24.46 0
v -44 -37 0
v -48.38 -37 0
v -48.38 -34.46 0
v -44 -34.46 0
v -58 -37 0
v -62.38 -37 0
v -62.38 -34.46 0
v -58 -34.46 0
v -19 -38 0
v -23.38 -38 0
v -23.38 -35.46 0
v -19 -35.46 0

# Texture cooridinates (Count = 12)
vt 0.7996349 1
vt 0.5997261 1
vt 0.5997261 0
vt 0.7996349 0
vt 0.9995436 0
vt 0.9995436 1
vt 0.3998174 0
vt 0.3998174 1
vt 0 0
vt 0.1999087 0
vt 0.1999087 1
vt 0 1

# Normal
vn 0 0 -1

# Mesh description
g Puzzle1_mesh_0014

# Faces
f 1/1/1 2/2/1 3/3/1 4/4/1
f 5/4/1 6/3/1 7/2/1 8/1/1
f 9/4/1 10/3/1 11/2/1 12/1/1
f 13/4/1 14/5/1 15/6/1 16/1/1
f 17/7/1 18/3/1 19/2/1 20/8/1
f 21/4/1 22/5/1 23/6/1 24/1/1
f 25/9/1 26/10/1 27/11/1 28/12/1
f 29/9/1 30/10/1 31/11/1 32/12/1

