# Tiled2Unity generated file. Do not modify by hand.
# Wavefront file for 'Puzzle1_mesh_0109.obj'

# Vertices (Count = 48)
v -64 -7 0
v -65 -7 0
v -65 -6 0
v -64 -6 0
v -33 -9 0
v -34 -9 0
v -34 -8 0
v -33 -8 0
v -64 -11 0
v -65 -11 0
v -65 -10 0
v -64 -10 0
v -17 -12 0
v -18 -12 0
v -18 -11 0
v -17 -11 0
v -20 -12 0
v -21 -12 0
v -21 -11 0
v -20 -11 0
v -33 -14 0
v -34 -14 0
v -34 -13 0
v -33 -13 0
v -9 -16 0
v -10 -16 0
v -10 -15 0
v -9 -15 0
v -17 -17 0
v -18 -17 0
v -18 -16 0
v -17 -16 0
v -20 -22 0
v -21 -22 0
v -21 -21 0
v -20 -21 0
v -40 -24 0
v -41 -24 0
v -41 -23 0
v -40 -23 0
v -17 -28 0
v -18 -28 0
v -18 -27 0
v -17 -27 0
v -44 -38 0
v -45 -38 0
v -45 -37 0
v -44 -37 0

# Texture cooridinates (Count = 8)
vt 0 0.8
vt 0 0.6
vt 0.5 0.6
vt 0.5 0.8
vt 0 0.4
vt 0.5 0.4
vt 0 0.2
vt 0.5 0.2

# Normal
vn 0 0 -1

# Mesh description
g Puzzle1_mesh_0109

# Faces
f 1/1/1 2/2/1 3/3/1 4/4/1
f 5/5/1 6/6/1 7/3/1 8/2/1
f 9/7/1 10/8/1 11/6/1 12/5/1
f 13/4/1 14/1/1 15/2/1 16/3/1
f 17/1/1 18/2/1 19/3/1 20/4/1
f 21/5/1 22/6/1 23/3/1 24/2/1
f 25/1/1 26/2/1 27/3/1 28/4/1
f 29/5/1 30/6/1 31/3/1 32/2/1
f 33/2/1 34/3/1 35/4/1 36/1/1
f 37/3/1 38/4/1 39/1/1 40/2/1
f 41/2/1 42/3/1 43/4/1 44/1/1
f 45/3/1 46/4/1 47/1/1 48/2/1

