# Tiled2Unity generated file. Do not modify by hand.
# Wavefront file for 'Puzzle1_mesh_0028.obj'

# Vertices (Count = 80)
v -63 -6 0
v -64 -6 0
v -64 -5 0
v -63 -5 0
v -25 -9 0
v -26 -9 0
v -26 -8 0
v -25 -8 0
v -7 -11 0
v -8 -11 0
v -8 -10 0
v -7 -10 0
v -8 -11 0
v -9 -11 0
v -9 -10 0
v -8 -10 0
v -63 -14 0
v -64 -14 0
v -64 -13 0
v -63 -13 0
v -1 -19 0
v -2 -19 0
v -2 -18 0
v -1 -18 0
v -2 -19 0
v -3 -19 0
v -3 -18 0
v -2 -18 0
v -3 -19 0
v -4 -19 0
v -4 -18 0
v -3 -18 0
v -59 -21 0
v -60 -21 0
v -60 -20 0
v -59 -20 0
v -7 -27 0
v -8 -27 0
v -8 -26 0
v -7 -26 0
v -10 -27 0
v -11 -27 0
v -11 -26 0
v -10 -26 0
v -13 -27 0
v -14 -27 0
v -14 -26 0
v -13 -26 0
v -15 -34 0
v -16 -34 0
v -16 -33 0
v -15 -33 0
v -54 -37 0
v -55 -37 0
v -55 -36 0
v -54 -36 0
v -17 -38 0
v -18 -38 0
v -18 -37 0
v -17 -37 0
v -21 -38 0
v -22 -38 0
v -22 -37 0
v -21 -37 0
v -22 -38 0
v -23 -38 0
v -23 -37 0
v -22 -37 0
v -33 -38 0
v -34 -38 0
v -34 -37 0
v -33 -37 0
v -37 -38 0
v -38 -38 0
v -38 -37 0
v -37 -37 0
v -38 -38 0
v -39 -38 0
v -39 -37 0
v -38 -37 0

# Texture cooridinates (Count = 4)
vt 0.5 0
vt 0.75 0
vt 0.75 1
vt 0.5 1

# Normal
vn 0 0 -1

# Mesh description
g Puzzle1_mesh_0028

# Faces
f 1/1/1 2/2/1 3/3/1 4/4/1
f 5/1/1 6/2/1 7/3/1 8/4/1
f 9/1/1 10/2/1 11/3/1 12/4/1
f 13/1/1 14/2/1 15/3/1 16/4/1
f 17/1/1 18/2/1 19/3/1 20/4/1
f 21/1/1 22/2/1 23/3/1 24/4/1
f 25/1/1 26/2/1 27/3/1 28/4/1
f 29/1/1 30/2/1 31/3/1 32/4/1
f 33/1/1 34/2/1 35/3/1 36/4/1
f 37/1/1 38/2/1 39/3/1 40/4/1
f 41/1/1 42/2/1 43/3/1 44/4/1
f 45/1/1 46/2/1 47/3/1 48/4/1
f 49/1/1 50/2/1 51/3/1 52/4/1
f 53/1/1 54/2/1 55/3/1 56/4/1
f 57/1/1 58/2/1 59/3/1 60/4/1
f 61/1/1 62/2/1 63/3/1 64/4/1
f 65/1/1 66/2/1 67/3/1 68/4/1
f 69/1/1 70/2/1 71/3/1 72/4/1
f 73/1/1 74/2/1 75/3/1 76/4/1
f 77/1/1 78/2/1 79/3/1 80/4/1

