# Tiled2Unity generated file. Do not modify by hand.
# Wavefront file for 'Puzzle1_mesh_0096.obj'

# Vertices (Count = 56)
v -63 -5 0
v -65.27 -5 0
v -65.27 -3.12 0
v -63 -3.12 0
v -45 -7 0
v -47.27 -7 0
v -47.27 -5.12 0
v -45 -5.12 0
v -19 -8 0
v -21.27 -8 0
v -21.27 -6.12 0
v -19 -6.12 0
v -4 -9 0
v -6.27 -9 0
v -6.27 -7.12 0
v -4 -7.12 0
v -15 -20 0
v -17.27 -20 0
v -17.27 -18.12 0
v -15 -18.12 0
v -58 -20 0
v -60.27 -20 0
v -60.27 -18.12 0
v -58 -18.12 0
v -24 -21 0
v -26.27 -21 0
v -26.27 -19.12 0
v -24 -19.12 0
v -6 -26 0
v -8.27 -26 0
v -8.27 -24.12 0
v -6 -24.12 0
v -61 -28 0
v -63.27 -28 0
v -63.27 -26.12 0
v -61 -26.12 0
v -43 -30 0
v -45.27 -30 0
v -45.27 -28.12 0
v -43 -28.12 0
v -12 -33 0
v -14.27 -33 0
v -14.27 -31.12 0
v -12 -31.12 0
v -53 -36 0
v -55.27 -36 0
v -55.27 -34.12 0
v -53 -34.12 0
v -1 -37 0
v -3.27 -37 0
v -3.27 -35.12 0
v -1 -35.12 0
v -33 -37 0
v -35.27 -37 0
v -35.27 -35.12 0
v -33 -35.12 0

# Texture cooridinates (Count = 4)
vt 0.2216797 0.4492188
vt 0.1108398 0.4492188
vt 0.1108398 0.3574219
vt 0.2216797 0.3574219

# Normal
vn 0 0 -1

# Mesh description
g Puzzle1_mesh_0096

# Faces
f 1/1/1 2/2/1 3/3/1 4/4/1
f 5/3/1 6/4/1 7/1/1 8/2/1
f 9/1/1 10/2/1 11/3/1 12/4/1
f 13/3/1 14/4/1 15/1/1 16/2/1
f 17/3/1 18/4/1 19/1/1 20/2/1
f 21/1/1 22/2/1 23/3/1 24/4/1
f 25/3/1 26/4/1 27/1/1 28/2/1
f 29/1/1 30/2/1 31/3/1 32/4/1
f 33/1/1 34/2/1 35/3/1 36/4/1
f 37/3/1 38/4/1 39/1/1 40/2/1
f 41/1/1 42/2/1 43/3/1 44/4/1
f 45/3/1 46/4/1 47/1/1 48/2/1
f 49/3/1 50/4/1 51/1/1 52/2/1
f 53/1/1 54/2/1 55/3/1 56/4/1

