# Tiled2Unity generated file. Do not modify by hand.
# Wavefront file for 'Puzzle1_mesh_0015.obj'

# Vertices (Count = 16)
v -2 -38 0
v -3 -38 0
v -3 -37 0
v -2 -37 0
v -4 -38 0
v -5 -38 0
v -5 -37 0
v -4 -37 0
v -7 -38 0
v -8 -38 0
v -8 -37 0
v -7 -37 0
v -8 -38 0
v -9 -38 0
v -9 -37 0
v -8 -37 0

# Texture cooridinates (Count = 4)
vt 0.5 0
vt 0.75 0
vt 0.75 1
vt 0.5 1

# Normal
vn 0 0 -1

# Mesh description
g Puzzle1_mesh_0015

# Faces
f 1/1/1 2/2/1 3/3/1 4/4/1
f 5/1/1 6/2/1 7/3/1 8/4/1
f 9/1/1 10/2/1 11/3/1 12/4/1
f 13/1/1 14/2/1 15/3/1 16/4/1

