# Tiled2Unity generated file. Do not modify by hand.
# Wavefront file for 'Puzzle1_mesh_0009.obj'

# Vertices (Count = 72)
v -55 -8 0
v -56 -8 0
v -56 -7 0
v -55 -7 0
v -2 -11 0
v -3 -11 0
v -3 -10 0
v -2 -10 0
v -7 -11 0
v -8 -11 0
v -8 -10 0
v -7 -10 0
v -18 -21 0
v -19 -21 0
v -19 -20 0
v -18 -20 0
v -41 -23 0
v -42 -23 0
v -42 -22 0
v -41 -22 0
v -10 -27 0
v -11 -27 0
v -11 -26 0
v -10 -26 0
v -14 -27 0
v -15 -27 0
v -15 -26 0
v -14 -26 0
v -59 -30 0
v -60 -30 0
v -60 -29 0
v -59 -29 0
v -63 -30 0
v -64 -30 0
v -64 -29 0
v -63 -29 0
v -49 -37 0
v -50 -37 0
v -50 -36 0
v -49 -36 0
v -55 -37 0
v -56 -37 0
v -56 -36 0
v -55 -36 0
v -4 -38 0
v -5 -38 0
v -5 -37 0
v -4 -37 0
v -16 -38 0
v -17 -38 0
v -17 -37 0
v -16 -37 0
v -17 -38 0
v -18 -38 0
v -18 -37 0
v -17 -37 0
v -18 -38 0
v -19 -38 0
v -19 -37 0
v -18 -37 0
v -37 -38 0
v -38 -38 0
v -38 -37 0
v -37 -37 0
v -38 -38 0
v -39 -38 0
v -39 -37 0
v -38 -37 0
v -40 -38 0
v -41 -38 0
v -41 -37 0
v -40 -37 0

# Texture cooridinates (Count = 4)
vt 0 0
vt 0.25 0
vt 0.25 1
vt 0 1

# Normal
vn 0 0 -1

# Mesh description
g Puzzle1_mesh_0009

# Faces
f 1/1/1 2/2/1 3/3/1 4/4/1
f 5/1/1 6/2/1 7/3/1 8/4/1
f 9/1/1 10/2/1 11/3/1 12/4/1
f 13/1/1 14/2/1 15/3/1 16/4/1
f 17/1/1 18/2/1 19/3/1 20/4/1
f 21/1/1 22/2/1 23/3/1 24/4/1
f 25/1/1 26/2/1 27/3/1 28/4/1
f 29/1/1 30/2/1 31/3/1 32/4/1
f 33/1/1 34/2/1 35/3/1 36/4/1
f 37/1/1 38/2/1 39/3/1 40/4/1
f 41/1/1 42/2/1 43/3/1 44/4/1
f 45/1/1 46/2/1 47/3/1 48/4/1
f 49/1/1 50/2/1 51/3/1 52/4/1
f 53/1/1 54/2/1 55/3/1 56/4/1
f 57/1/1 58/2/1 59/3/1 60/4/1
f 61/1/1 62/2/1 63/3/1 64/4/1
f 65/1/1 66/2/1 67/3/1 68/4/1
f 69/1/1 70/2/1 71/3/1 72/4/1

