# Tiled2Unity generated file. Do not modify by hand.
# Wavefront file for 'OpenLevel1_mesh_0012.obj'

# Vertices (Count = 108)
v -78 -4 0
v -79 -4 0
v -79 -3 0
v -78 -3 0
v -79 -4 0
v -80 -4 0
v -80 -3 0
v -79 -3 0
v -81 -4 0
v -82 -4 0
v -82 -3 0
v -81 -3 0
v -83 -4 0
v -84 -4 0
v -84 -3 0
v -83 -3 0
v -88 -4 0
v -89 -4 0
v -89 -3 0
v -88 -3 0
v -89 -4 0
v -90 -4 0
v -90 -3 0
v -89 -3 0
v -2 -10 0
v -3 -10 0
v -3 -9 0
v -2 -9 0
v -70 -10 0
v -71 -10 0
v -71 -9 0
v -70 -9 0
v -86 -14 0
v -87 -14 0
v -87 -13 0
v -86 -13 0
v -92 -14 0
v -93 -14 0
v -93 -13 0
v -92 -13 0
v -27 -16 0
v -28 -16 0
v -28 -15 0
v -27 -15 0
v -29 -16 0
v -30 -16 0
v -30 -15 0
v -29 -15 0
v -30 -16 0
v -31 -16 0
v -31 -15 0
v -30 -15 0
v -31 -16 0
v -32 -16 0
v -32 -15 0
v -31 -15 0
v -72 -23 0
v -73 -23 0
v -73 -22 0
v -72 -22 0
v -75 -23 0
v -76 -23 0
v -76 -22 0
v -75 -22 0
v -91 -23 0
v -92 -23 0
v -92 -22 0
v -91 -22 0
v -21 -25 0
v -22 -25 0
v -22 -24 0
v -21 -24 0
v -22 -25 0
v -23 -25 0
v -23 -24 0
v -22 -24 0
v -84 -31 0
v -85 -31 0
v -85 -30 0
v -84 -30 0
v -85 -31 0
v -86 -31 0
v -86 -30 0
v -85 -30 0
v -48 -38 0
v -49 -38 0
v -49 -37 0
v -48 -37 0
v -50 -38 0
v -51 -38 0
v -51 -37 0
v -50 -37 0
v -72 -38 0
v -73 -38 0
v -73 -37 0
v -72 -37 0
v -76 -38 0
v -77 -38 0
v -77 -37 0
v -76 -37 0
v -81 -38 0
v -82 -38 0
v -82 -37 0
v -81 -37 0
v -85 -38 0
v -86 -38 0
v -86 -37 0
v -85 -37 0

# Texture cooridinates (Count = 4)
vt 0.25 0
vt 0.5 0
vt 0.5 1
vt 0.25 1

# Normal
vn 0 0 -1

# Mesh description
g OpenLevel1_mesh_0012

# Faces
f 1/1/1 2/2/1 3/3/1 4/4/1
f 5/1/1 6/2/1 7/3/1 8/4/1
f 9/1/1 10/2/1 11/3/1 12/4/1
f 13/1/1 14/2/1 15/3/1 16/4/1
f 17/1/1 18/2/1 19/3/1 20/4/1
f 21/1/1 22/2/1 23/3/1 24/4/1
f 25/1/1 26/2/1 27/3/1 28/4/1
f 29/1/1 30/2/1 31/3/1 32/4/1
f 33/1/1 34/2/1 35/3/1 36/4/1
f 37/1/1 38/2/1 39/3/1 40/4/1
f 41/1/1 42/2/1 43/3/1 44/4/1
f 45/1/1 46/2/1 47/3/1 48/4/1
f 49/1/1 50/2/1 51/3/1 52/4/1
f 53/1/1 54/2/1 55/3/1 56/4/1
f 57/1/1 58/2/1 59/3/1 60/4/1
f 61/1/1 62/2/1 63/3/1 64/4/1
f 65/1/1 66/2/1 67/3/1 68/4/1
f 69/1/1 70/2/1 71/3/1 72/4/1
f 73/1/1 74/2/1 75/3/1 76/4/1
f 77/1/1 78/2/1 79/3/1 80/4/1
f 81/1/1 82/2/1 83/3/1 84/4/1
f 85/1/1 86/2/1 87/3/1 88/4/1
f 89/1/1 90/2/1 91/3/1 92/4/1
f 93/1/1 94/2/1 95/3/1 96/4/1
f 97/1/1 98/2/1 99/3/1 100/4/1
f 101/1/1 102/2/1 103/3/1 104/4/1
f 105/1/1 106/2/1 107/3/1 108/4/1

