# Tiled2Unity generated file. Do not modify by hand.
# Wavefront file for 'Puzzle3_mesh_0102.obj'

# Vertices (Count = 16)
v -44 -30 0
v -45 -30 0
v -45 -29 0
v -44 -29 0
v -30 -32 0
v -31 -32 0
v -31 -31 0
v -30 -31 0
v -31 -32 0
v -32 -32 0
v -32 -31 0
v -31 -31 0
v -7 -35 0
v -8 -35 0
v -8 -34 0
v -7 -34 0

# Texture cooridinates (Count = 6)
vt 0.3333333 0
vt 0.6666667 0
vt 0.6666667 1
vt 0.3333333 1
vt 0 0
vt 0 1

# Normal
vn 0 0 -1

# Mesh description
g Puzzle3_mesh_0102

# Faces
f 1/1/1 2/2/1 3/3/1 4/4/1
f 5/1/1 6/2/1 7/3/1 8/4/1
f 9/5/1 10/1/1 11/4/1 12/6/1
f 13/1/1 14/2/1 15/3/1 16/4/1

