# Tiled2Unity generated file. Do not modify by hand.
# Wavefront file for 'Puzzle2_mesh_0013.obj'

# Vertices (Count = 24)
v -10 -7 0
v -14.38 -7 0
v -14.38 -4.46 0
v -10 -4.46 0
v -25 -10 0
v -29.38 -10 0
v -29.38 -7.46 0
v -25 -7.46 0
v -11 -16 0
v -15.38 -16 0
v -15.38 -13.46 0
v -11 -13.46 0
v -9 -34 0
v -13.38 -34 0
v -13.38 -31.46 0
v -9 -31.46 0
v -15 -34 0
v -19.38 -34 0
v -19.38 -31.46 0
v -15 -31.46 0
v -41 -34 0
v -45.38 -34 0
v -45.38 -31.46 0
v -41 -31.46 0

# Texture cooridinates (Count = 12)
vt 0.3998174 0
vt 0.5997261 0
vt 0.5997261 1
vt 0.3998174 1
vt 0.1999087 0
vt 0 0
vt 0 1
vt 0.1999087 1
vt 0.7996349 0
vt 0.9995436 0
vt 0.9995436 1
vt 0.7996349 1

# Normal
vn 0 0 -1

# Mesh description
g Puzzle2_mesh_0013

# Faces
f 1/1/1 2/2/1 3/3/1 4/4/1
f 5/5/1 6/6/1 7/7/1 8/8/1
f 9/6/1 10/5/1 11/8/1 12/7/1
f 13/9/1 14/10/1 15/11/1 16/12/1
f 17/10/1 18/9/1 19/12/1 20/11/1
f 21/2/1 22/9/1 23/12/1 24/3/1

