# Tiled2Unity generated file. Do not modify by hand.
# Wavefront file for 'Puzzle2_mesh_0096.obj'

# Vertices (Count = 72)
v -64 -4 0
v -65 -4 0
v -65 -3 0
v -64 -3 0
v -31 -10 0
v -32 -10 0
v -32 -9 0
v -31 -9 0
v -33 -10 0
v -34 -10 0
v -34 -9 0
v -33 -9 0
v -41 -10 0
v -42 -10 0
v -42 -9 0
v -41 -9 0
v -3 -16 0
v -4 -16 0
v -4 -15 0
v -3 -15 0
v -9 -16 0
v -10 -16 0
v -10 -15 0
v -9 -15 0
v -12 -16 0
v -13 -16 0
v -13 -15 0
v -12 -15 0
v -59 -22 0
v -60 -22 0
v -60 -21 0
v -59 -21 0
v -61 -22 0
v -62 -22 0
v -62 -21 0
v -61 -21 0
v -12 -24 0
v -13 -24 0
v -13 -23 0
v -12 -23 0
v -54 -27 0
v -55 -27 0
v -55 -26 0
v -54 -26 0
v -57 -27 0
v -58 -27 0
v -58 -26 0
v -57 -26 0
v -59 -27 0
v -60 -27 0
v -60 -26 0
v -59 -26 0
v -8 -34 0
v -9 -34 0
v -9 -33 0
v -8 -33 0
v -15 -34 0
v -16 -34 0
v -16 -33 0
v -15 -33 0
v -18 -34 0
v -19 -34 0
v -19 -33 0
v -18 -33 0
v -37 -34 0
v -38 -34 0
v -38 -33 0
v -37 -33 0
v -38 -34 0
v -39 -34 0
v -39 -33 0
v -38 -33 0

# Texture cooridinates (Count = 4)
vt 0.25 0
vt 0.5 0
vt 0.5 1
vt 0.25 1

# Normal
vn 0 0 -1

# Mesh description
g Puzzle2_mesh_0096

# Faces
f 1/1/1 2/2/1 3/3/1 4/4/1
f 5/1/1 6/2/1 7/3/1 8/4/1
f 9/1/1 10/2/1 11/3/1 12/4/1
f 13/1/1 14/2/1 15/3/1 16/4/1
f 17/1/1 18/2/1 19/3/1 20/4/1
f 21/1/1 22/2/1 23/3/1 24/4/1
f 25/1/1 26/2/1 27/3/1 28/4/1
f 29/1/1 30/2/1 31/3/1 32/4/1
f 33/1/1 34/2/1 35/3/1 36/4/1
f 37/1/1 38/2/1 39/3/1 40/4/1
f 41/1/1 42/2/1 43/3/1 44/4/1
f 45/1/1 46/2/1 47/3/1 48/4/1
f 49/1/1 50/2/1 51/3/1 52/4/1
f 53/1/1 54/2/1 55/3/1 56/4/1
f 57/1/1 58/2/1 59/3/1 60/4/1
f 61/1/1 62/2/1 63/3/1 64/4/1
f 65/1/1 66/2/1 67/3/1 68/4/1
f 69/1/1 70/2/1 71/3/1 72/4/1

