# Tiled2Unity generated file. Do not modify by hand.
# Wavefront file for 'Puzzle2_mesh_0092.obj'

# Vertices (Count = 92)
v -24 -4 0
v -25 -4 0
v -25 -3 0
v -24 -3 0
v -25 -4 0
v -26 -4 0
v -26 -3 0
v -25 -3 0
v -60 -4 0
v -61 -4 0
v -61 -3 0
v -60 -3 0
v -62 -4 0
v -63 -4 0
v -63 -3 0
v -62 -3 0
v -11 -7 0
v -12 -7 0
v -12 -6 0
v -11 -6 0
v -35 -10 0
v -36 -10 0
v -36 -9 0
v -35 -9 0
v -40 -10 0
v -41 -10 0
v -41 -9 0
v -40 -9 0
v -5 -16 0
v -6 -16 0
v -6 -15 0
v -5 -15 0
v -16 -16 0
v -17 -16 0
v -17 -15 0
v -16 -15 0
v -19 -16 0
v -20 -16 0
v -20 -15 0
v -19 -15 0
v -22 -16 0
v -23 -16 0
v -23 -15 0
v -22 -15 0
v -11 -24 0
v -12 -24 0
v -12 -23 0
v -11 -23 0
v -17 -24 0
v -18 -24 0
v -18 -23 0
v -17 -23 0
v -50 -27 0
v -51 -27 0
v -51 -26 0
v -50 -26 0
v -52 -27 0
v -53 -27 0
v -53 -26 0
v -52 -26 0
v -55 -27 0
v -56 -27 0
v -56 -26 0
v -55 -26 0
v -56 -27 0
v -57 -27 0
v -57 -26 0
v -56 -26 0
v -62 -27 0
v -63 -27 0
v -63 -26 0
v -62 -26 0
v -4 -34 0
v -5 -34 0
v -5 -33 0
v -4 -33 0
v -13 -34 0
v -14 -34 0
v -14 -33 0
v -13 -33 0
v -16 -34 0
v -17 -34 0
v -17 -33 0
v -16 -33 0
v -24 -34 0
v -25 -34 0
v -25 -33 0
v -24 -33 0
v -39 -34 0
v -40 -34 0
v -40 -33 0
v -39 -33 0

# Texture cooridinates (Count = 4)
vt 0.25 0
vt 0.5 0
vt 0.5 1
vt 0.25 1

# Normal
vn 0 0 -1

# Mesh description
g Puzzle2_mesh_0092

# Faces
f 1/1/1 2/2/1 3/3/1 4/4/1
f 5/1/1 6/2/1 7/3/1 8/4/1
f 9/1/1 10/2/1 11/3/1 12/4/1
f 13/1/1 14/2/1 15/3/1 16/4/1
f 17/1/1 18/2/1 19/3/1 20/4/1
f 21/1/1 22/2/1 23/3/1 24/4/1
f 25/1/1 26/2/1 27/3/1 28/4/1
f 29/1/1 30/2/1 31/3/1 32/4/1
f 33/1/1 34/2/1 35/3/1 36/4/1
f 37/1/1 38/2/1 39/3/1 40/4/1
f 41/1/1 42/2/1 43/3/1 44/4/1
f 45/1/1 46/2/1 47/3/1 48/4/1
f 49/1/1 50/2/1 51/3/1 52/4/1
f 53/1/1 54/2/1 55/3/1 56/4/1
f 57/1/1 58/2/1 59/3/1 60/4/1
f 61/1/1 62/2/1 63/3/1 64/4/1
f 65/1/1 66/2/1 67/3/1 68/4/1
f 69/1/1 70/2/1 71/3/1 72/4/1
f 73/1/1 74/2/1 75/3/1 76/4/1
f 77/1/1 78/2/1 79/3/1 80/4/1
f 81/1/1 82/2/1 83/3/1 84/4/1
f 85/1/1 86/2/1 87/3/1 88/4/1
f 89/1/1 90/2/1 91/3/1 92/4/1

