# Tiled2Unity generated file. Do not modify by hand.
# Wavefront file for 'Puzzle3_mesh_0008.obj'

# Vertices (Count = 60)
v -25 -6 0
v -26 -6 0
v -26 -5 0
v -25 -5 0
v -29 -6 0
v -30 -6 0
v -30 -5 0
v -29 -5 0
v -40 -6 0
v -41 -6 0
v -41 -5 0
v -40 -5 0
v -3 -10 0
v -4 -10 0
v -4 -9 0
v -3 -9 0
v -16 -26 0
v -17 -26 0
v -17 -25 0
v -16 -25 0
v -38 -26 0
v -39 -26 0
v -39 -25 0
v -38 -25 0
v -12 -27 0
v -13 -27 0
v -13 -26 0
v -12 -26 0
v -39 -30 0
v -40 -30 0
v -40 -29 0
v -39 -29 0
v -41 -30 0
v -42 -30 0
v -42 -29 0
v -41 -29 0
v -43 -30 0
v -44 -30 0
v -44 -29 0
v -43 -29 0
v -10 -34 0
v -11 -34 0
v -11 -33 0
v -10 -33 0
v -13 -34 0
v -14 -34 0
v -14 -33 0
v -13 -33 0
v -52 -36 0
v -53 -36 0
v -53 -35 0
v -52 -35 0
v -55 -36 0
v -56 -36 0
v -56 -35 0
v -55 -35 0
v -60 -36 0
v -61 -36 0
v -61 -35 0
v -60 -35 0

# Texture cooridinates (Count = 4)
vt 0.25 0
vt 0.5 0
vt 0.5 1
vt 0.25 1

# Normal
vn 0 0 -1

# Mesh description
g Puzzle3_mesh_0008

# Faces
f 1/1/1 2/2/1 3/3/1 4/4/1
f 5/1/1 6/2/1 7/3/1 8/4/1
f 9/1/1 10/2/1 11/3/1 12/4/1
f 13/1/1 14/2/1 15/3/1 16/4/1
f 17/1/1 18/2/1 19/3/1 20/4/1
f 21/1/1 22/2/1 23/3/1 24/4/1
f 25/1/1 26/2/1 27/3/1 28/4/1
f 29/1/1 30/2/1 31/3/1 32/4/1
f 33/1/1 34/2/1 35/3/1 36/4/1
f 37/1/1 38/2/1 39/3/1 40/4/1
f 41/1/1 42/2/1 43/3/1 44/4/1
f 45/1/1 46/2/1 47/3/1 48/4/1
f 49/1/1 50/2/1 51/3/1 52/4/1
f 53/1/1 54/2/1 55/3/1 56/4/1
f 57/1/1 58/2/1 59/3/1 60/4/1

