# Tiled2Unity generated file. Do not modify by hand.
# Wavefront file for 'Puzzle3_mesh_0013.obj'

# Vertices (Count = 68)
v -35 -28 0
v -36 -28 0
v -36 -27 0
v -35 -27 0
v -36 -28 0
v -37 -28 0
v -37 -27 0
v -36 -27 0
v -37 -28 0
v -38 -28 0
v -38 -27 0
v -37 -27 0
v -38 -28 0
v -39 -28 0
v -39 -27 0
v -38 -27 0
v -39 -28 0
v -40 -28 0
v -40 -27 0
v -39 -27 0
v -40 -28 0
v -41 -28 0
v -41 -27 0
v -40 -27 0
v -41 -28 0
v -42 -28 0
v -42 -27 0
v -41 -27 0
v -36 -29 0
v -37 -29 0
v -37 -28 0
v -36 -28 0
v -37 -29 0
v -38 -29 0
v -38 -28 0
v -37 -28 0
v -38 -29 0
v -39 -29 0
v -39 -28 0
v -38 -28 0
v -39 -29 0
v -40 -29 0
v -40 -28 0
v -39 -28 0
v -40 -29 0
v -41 -29 0
v -41 -28 0
v -40 -28 0
v -36 -30 0
v -37 -30 0
v -37 -29 0
v -36 -29 0
v -37 -30 0
v -38 -30 0
v -38 -29 0
v -37 -29 0
v -38 -30 0
v -39 -30 0
v -39 -29 0
v -38 -29 0
v -39 -30 0
v -40 -30 0
v -40 -29 0
v -39 -29 0
v -40 -30 0
v -41 -30 0
v -41 -29 0
v -40 -29 0

# Texture cooridinates (Count = 6)
vt 0 0
vt 0.5 0
vt 0.5 1
vt 0 1
vt 1 0
vt 1 1

# Normal
vn 0 0 -1

# Mesh description
g Puzzle3_mesh_0013

# Faces
f 1/1/1 2/2/1 3/3/1 4/4/1
f 5/2/1 6/5/1 7/6/1 8/3/1
f 9/2/1 10/5/1 11/6/1 12/3/1
f 13/2/1 14/5/1 15/6/1 16/3/1
f 17/2/1 18/5/1 19/6/1 20/3/1
f 21/2/1 22/5/1 23/6/1 24/3/1
f 25/4/1 26/1/1 27/2/1 28/3/1
f 29/1/1 30/2/1 31/3/1 32/4/1
f 33/2/1 34/5/1 35/6/1 36/3/1
f 37/2/1 38/5/1 39/6/1 40/3/1
f 41/2/1 42/5/1 43/6/1 44/3/1
f 45/4/1 46/1/1 47/2/1 48/3/1
f 49/2/1 50/3/1 51/4/1 52/1/1
f 53/2/1 54/5/1 55/6/1 56/3/1
f 57/2/1 58/5/1 59/6/1 60/3/1
f 61/2/1 62/5/1 63/6/1 64/3/1
f 65/3/1 66/4/1 67/1/1 68/2/1

